<svg viewBox="0 0 512 512" xmlns="http://www.w3.org/2000/svg">
  <defs>
    <!-- Background gradient -->
    <radialGradient id="backgroundGradient" cx="0.5" cy="0.4" r="0.8">
      <stop offset="0%" stop-color="#FFE8D4"/>
      <stop offset="100%" stop-color="#F4C430"/>
    </radialGradient>
    
    <!-- Bread crust gradient -->
    <radialGradient id="crustGradient" cx="0.3" cy="0.2" r="1.2">
      <stop offset="0%" stop-color="#DEB887"/>
      <stop offset="30%" stop-color="#D2691E"/>
      <stop offset="70%" stop-color="#A0522D"/>
      <stop offset="100%" stop-color="#8B4513"/>
    </radialGradient>
    
    <!-- Bread interior -->
    <radialGradient id="interiorGradient" cx="0.5" cy="0.5" r="0.8">
      <stop offset="0%" stop-color="#FFFACD"/>
      <stop offset="50%" stop-color="#F5DEB3"/>
      <stop offset="100%" stop-color="#DEB887"/>
    </radialGradient>
    
    <!-- Shadow -->
    <radialGradient id="shadowGrad" cx="0.5" cy="0.8" r="0.7">
      <stop offset="0%" stop-color="#000" stop-opacity="0.15"/>
      <stop offset="100%" stop-color="#000" stop-opacity="0"/>
    </radialGradient>
  </defs>
  
  <!-- Rounded background -->
  <rect width="512" height="512" rx="108" fill="url(#backgroundGradient)"/>
  
  <!-- Drop shadow -->
  <ellipse cx="256" cy="380" rx="140" ry="25" fill="url(#shadowGrad)"/>
  
  <!-- Main bread loaf shape -->
  <path d="M 256 140 
           C 200 140, 160 170, 160 210
           C 160 240, 170 260, 190 280
           C 200 290, 210 300, 220 310
           C 230 320, 240 330, 250 335
           L 262 335
           C 272 330, 282 320, 292 310
           C 302 300, 312 290, 322 280
           C 342 260, 352 240, 352 210
           C 352 170, 312 140, 256 140 Z" 
        fill="url(#crustGradient)" 
        stroke="#8B4513" 
        stroke-width="2"/>
  
  <!-- Scoring cuts -->
  <g stroke="#654321" stroke-width="6" fill="none" stroke-linecap="round" opacity="0.8">
    <!-- Main cross pattern -->
    <path d="M 190 210 Q 256 190 322 210"/>
    <path d="M 256 160 Q 245 220 256 320"/>
    
    <!-- Decorative side scores -->
    <path d="M 210 185 Q 240 175 270 185"/>
    <path d="M 242 235 Q 256 230 270 235"/>
    <path d="M 242 255 Q 256 250 270 255"/>
  </g>
  
  <!-- Bread interior showing through scores -->
  <g stroke="url(#interiorGradient)" stroke-width="3" fill="none" opacity="0.9">
    <path d="M 195 210 Q 256 195 317 210"/>
    <path d="M 256 165 Q 248 220 256 315"/>
  </g>
  
  <!-- Highlight on bread -->
  <ellipse cx="240" cy="190" rx="60" ry="40" fill="#F5DEB3" opacity="0.4"/>
  
  <!-- Decorative wheat stalks -->
  <g fill="#DAA520" stroke="#B8860B" stroke-width="1.5" opacity="0.7">
    <!-- Left wheat -->
    <g transform="translate(100,100) rotate(-15)">
      <line x1="0" y1="0" x2="0" y2="80" stroke="#8B7355" stroke-width="3"/>
      <ellipse cx="-3" cy="10" rx="6" ry="3"/>
      <ellipse cx="3" cy="15" rx="6" ry="3"/>
      <ellipse cx="-3" cy="20" rx="6" ry="3"/>
      <ellipse cx="3" cy="25" rx="6" ry="3"/>
      <ellipse cx="-3" cy="30" rx="6" ry="3"/>
      <ellipse cx="3" cy="35" rx="6" ry="3"/>
      <ellipse cx="-3" cy="40" rx="6" ry="3"/>
    </g>
    
    <!-- Right wheat -->
    <g transform="translate(412,100) rotate(15)">
      <line x1="0" y1="0" x2="0" y2="80" stroke="#8B7355" stroke-width="3"/>
      <ellipse cx="-3" cy="10" rx="6" ry="3"/>
      <ellipse cx="3" cy="15" rx="6" ry="3"/>
      <ellipse cx="-3" cy="20" rx="6" ry="3"/>
      <ellipse cx="3" cy="25" rx="6" ry="3"/>
      <ellipse cx="-3" cy="30" rx="6" ry="3"/>
      <ellipse cx="3" cy="35" rx="6" ry="3"/>
      <ellipse cx="-3" cy="40" rx="6" ry="3"/>
    </g>
  </g>
  
  <!-- Brand text hint (very subtle) -->
  <text x="256" y="420" text-anchor="middle" fill="#8B4513" font-family="serif" font-size="24" font-weight="bold" opacity="0.3">COACH</text>
  
  <!-- Small texture dots -->
  <g fill="#CD853F" opacity="0.3">
    <circle cx="220" cy="200" r="2"/>
    <circle cx="280" cy="190" r="1.5"/>
    <circle cx="240" cy="240" r="2"/>
    <circle cx="285" cy="230" r="1"/>
    <circle cx="225" cy="265" r="1.5"/>
    <circle cx="275" cy="270" r="2"/>
  </g>
</svg>