<svg viewBox="0 0 192 192" xmlns="http://www.w3.org/2000/svg">
  <defs>
    <!-- Gradients for the bread -->
    <radialGradient id="breadGradient" cx="0.5" cy="0.3" r="0.8">
      <stop offset="0%" stop-color="#F4D88A"/>
      <stop offset="40%" stop-color="#E8B556"/>
      <stop offset="80%" stop-color="#D4942A"/>
      <stop offset="100%" stop-color="#B8761E"/>
    </radialGradient>
    
    <!-- Shadow gradient -->
    <radialGradient id="shadowGradient" cx="0.5" cy="0.8" r="0.6">
      <stop offset="0%" stop-color="#8B4513" stop-opacity="0.3"/>
      <stop offset="100%" stop-color="#8B4513" stop-opacity="0"/>
    </radialGradient>
    
    <!-- Scoring gradients -->
    <linearGradient id="scoreGradient" x1="0" y1="0" x2="1" y2="1">
      <stop offset="0%" stop-color="#8B4513"/>
      <stop offset="50%" stop-color="#CD853F"/>
      <stop offset="100%" stop-color="#8B4513"/>
    </linearGradient>
    
    <!-- Background gradient -->
    <radialGradient id="bgGradient" cx="0.5" cy="0.5" r="0.8">
      <stop offset="0%" stop-color="#FDF6F3"/>
      <stop offset="100%" stop-color="#F7E6D3"/>
    </radialGradient>
  </defs>
  
  <!-- Background -->
  <rect width="192" height="192" rx="32" fill="url(#bgGradient)"/>
  
  <!-- Shadow -->
  <ellipse cx="96" cy="145" rx="70" ry="12" fill="url(#shadowGradient)"/>
  
  <!-- Main bread loaf -->
  <ellipse cx="96" cy="96" rx="68" ry="50" fill="url(#breadGradient)"/>
  
  <!-- Bread highlight -->
  <ellipse cx="96" cy="80" rx="55" ry="35" fill="#F9E4A6" opacity="0.6"/>
  
  <!-- Scoring pattern -->
  <g stroke="url(#scoreGradient)" stroke-width="3" fill="none" stroke-linecap="round">
    <!-- Main cross score -->
    <path d="M 50 96 Q 96 85 142 96" />
    <path d="M 96 55 Q 90 96 96 135" />
    
    <!-- Secondary scores -->
    <path d="M 65 80 Q 85 75 105 80" />
    <path d="M 87 110 Q 105 105 123 110" />
  </g>
  
  <!-- Wheat decorations -->
  <g fill="#D4942A" opacity="0.7">
    <!-- Left wheat -->
    <g transform="translate(25,40) scale(0.8)">
      <path d="M 8 0 Q 12 2 8 4 Q 4 2 8 0"/>
      <path d="M 8 5 Q 12 7 8 9 Q 4 7 8 5"/>
      <path d="M 8 10 Q 12 12 8 14 Q 4 12 8 10"/>
      <path d="M 8 15 Q 12 17 8 19 Q 4 17 8 15"/>
      <line x1="8" y1="0" x2="8" y2="25" stroke="#8B4513" stroke-width="1.5"/>
    </g>
    
    <!-- Right wheat -->
    <g transform="translate(159,40) scale(0.8)">
      <path d="M 8 0 Q 12 2 8 4 Q 4 2 8 0"/>
      <path d="M 8 5 Q 12 7 8 9 Q 4 7 8 5"/>
      <path d="M 8 10 Q 12 12 8 14 Q 4 12 8 10"/>
      <path d="M 8 15 Q 12 17 8 19 Q 4 17 8 15"/>
      <line x1="8" y1="0" x2="8" y2="25" stroke="#8B4513" stroke-width="1.5"/>
    </g>
  </g>
  
  <!-- Subtle texture dots on bread -->
  <g fill="#CD853F" opacity="0.4">
    <circle cx="75" cy="85" r="1.5"/>
    <circle cx="110" cy="78" r="1"/>
    <circle cx="85" cy="105" r="1.2"/>
    <circle cx="120" cy="100" r="0.8"/>
    <circle cx="70" cy="110" r="1"/>
  </g>
</svg>